<svg width="13" height="4" viewBox="0 0 13 4" fill="none" xmlns="http://www.w3.org/2000/svg">
<path d="M12 3C12.5523 3 13 2.55228 13 2C13 1.44772 12.5523 1 12 1C11.4477 1 11 1.44772 11 2C11 2.55228 11.4477 3 12 3Z" fill="#F39954"/>
<path d="M7.5 3.5C8.32843 3.5 9 2.82843 9 2C9 1.17157 8.32843 0.5 7.5 0.5C6.67157 0.5 6 1.17157 6 2C6 2.82843 6.67157 3.5 7.5 3.5Z" fill="#F39954"/>
<path d="M2 4C3.10457 4 4 3.10457 4 2C4 0.89543 3.10457 0 2 0C0.89543 0 0 0.89543 0 2C0 3.10457 0.89543 4 2 4Z" fill="#F39954"/>
</svg>
