<svg width="30" height="30" viewBox="0 0 30 30" fill="none" xmlns="http://www.w3.org/2000/svg">
<path d="M29.5011 20.9939V9.93061C29.5011 8.54082 28.3684 7.40816 26.9786 7.40816H23.9419V1.62245C23.9419 0.728571 23.2133 0 22.3194 0H7.68066C6.78678 0 6.05821 0.728571 6.05821 1.62245V7.40816H3.02147C1.63168 7.40816 0.499023 8.54082 0.499023 9.93061V20.9939C0.499023 22.3837 1.63168 23.5163 3.02147 23.5163H6.05821V28.3776C6.05821 29.2714 6.78678 30 7.68066 30H22.3194C23.2133 30 23.9419 29.2714 23.9419 28.3776V23.5102H26.9786C28.3745 23.5102 29.5011 22.3837 29.5011 20.9939ZM7.27045 1.62245C7.27045 1.39592 7.45413 1.21224 7.68066 1.21224H22.3194C22.546 1.21224 22.7296 1.39592 22.7296 1.62245V7.40816H7.27045V1.62245ZM22.7358 28.3776C22.7358 28.6041 22.5521 28.7878 22.3256 28.7878H7.68066C7.45413 28.7878 7.27045 28.6041 7.27045 28.3776V16.0714H22.7296V28.3776H22.7358ZM28.2888 20.9939C28.2888 21.7163 27.7011 22.3041 26.9786 22.3041H23.9419V15.4653C23.9419 15.1286 23.6725 14.8592 23.3358 14.8592H6.66433C6.3276 14.8592 6.05821 15.1286 6.05821 15.4653V22.3041H3.02147C2.29902 22.3041 1.71127 21.7163 1.71127 20.9939V9.93061C1.71127 9.20816 2.29902 8.62041 3.02147 8.62041H26.9786C27.7011 8.62041 28.2888 9.20816 28.2888 9.93061V20.9939Z" fill="#F39954"/>
<path d="M4.80925 11.1184C4.65006 11.1184 4.497 11.1857 4.38068 11.2959C4.27047 11.4123 4.20312 11.5653 4.20312 11.7245C4.20312 11.8837 4.27047 12.0368 4.38068 12.1531C4.497 12.2633 4.65006 12.3306 4.80925 12.3306C4.96843 12.3306 5.12149 12.2633 5.23782 12.1531C5.34802 12.0429 5.41537 11.8837 5.41537 11.7245C5.41537 11.5653 5.34802 11.4123 5.23782 11.2959C5.12762 11.1857 4.96843 11.1184 4.80925 11.1184Z" fill="#F39954"/>
<path d="M10.7116 23.0326H19.3014C19.6381 23.0326 19.9075 22.7632 19.9075 22.4265C19.9075 22.0898 19.6381 21.8204 19.3014 21.8204H10.7116C10.3749 21.8204 10.1055 22.0898 10.1055 22.4265C10.1055 22.7632 10.3749 23.0326 10.7116 23.0326Z" fill="#F39954"/>
<path d="M10.7116 26.4673H19.3014C19.6381 26.4673 19.9075 26.198 19.9075 25.8612C19.9075 25.5245 19.6381 25.2551 19.3014 25.2551H10.7116C10.3749 25.2551 10.1055 25.5245 10.1055 25.8612C10.1055 26.198 10.3749 26.4673 10.7116 26.4673Z" fill="#F39954"/>
<path d="M10.7116 19.598H19.3014C19.6381 19.598 19.9075 19.3286 19.9075 18.9918C19.9075 18.6551 19.6381 18.3857 19.3014 18.3857H10.7116C10.3749 18.3857 10.1055 18.6551 10.1055 18.9918C10.1055 19.3286 10.3749 19.598 10.7116 19.598Z" fill="#F39954"/>
</svg>
