<svg width="19" height="18" viewBox="0 0 19 18" fill="none" xmlns="http://www.w3.org/2000/svg">
<path fill-rule="evenodd" clip-rule="evenodd" d="M12.6414 11.1078C13.4842 9.95294 13.9816 8.52996 13.9816 6.99081C13.9816 3.12989 10.8517 0 6.99081 0C3.12989 0 0 3.12989 0 6.99081C0 10.8517 3.12989 13.9816 6.99081 13.9816C8.31965 13.9816 9.56189 13.6109 10.6197 12.9671L15.9937 18L18.0033 16.1178L12.6414 11.1078ZM6.99081 10.9856C9.19705 10.9856 10.9856 9.19705 10.9856 6.99081C10.9856 4.78457 9.19705 2.99606 6.99081 2.99606C4.78457 2.99606 2.99606 4.78457 2.99606 6.99081C2.99606 9.19705 4.78457 10.9856 6.99081 10.9856Z" fill="#364697"/>
</svg>
