<svg width="151" height="100" viewBox="0 0 151 100" fill="none" xmlns="http://www.w3.org/2000/svg">
<path fill-rule="evenodd" clip-rule="evenodd" d="M130.137 76.4079L122.298 68.4931H128.463L133.562 73.9726L145.434 60.8828H150.989L136.301 76.4079H130.137Z" fill="#F39954"/>
<path fill-rule="evenodd" clip-rule="evenodd" d="M4.56621 81.8874H9.13242C10.274 81.8874 11.3394 81.8112 12.4049 81.5829C13.1659 81.4307 13.8508 81.1263 14.4597 80.7458C14.9924 80.3653 15.3729 79.8326 15.6012 79.2237C15.9056 78.4627 15.9817 77.7017 15.9817 76.9406C15.9817 76.2557 15.9056 75.4947 15.6773 74.8097C15.449 74.277 15.1446 73.7443 14.7641 73.3638C14.3075 72.9832 13.7747 72.6788 13.1659 72.4505C12.4049 72.2222 11.6438 72.1461 10.9589 72.1461H4.56621V81.8874ZM0 85.3881V68.4931H10.9589C12.3288 68.4931 13.7747 68.6453 15.0685 69.0259C16.21 69.3303 17.2755 69.9391 18.1887 70.7001C19.0259 71.4612 19.7108 72.3744 20.0913 73.4399C20.5479 74.5814 20.7763 75.7991 20.7001 77.0167C20.7001 77.7778 20.624 78.5388 20.4718 79.2998C20.3196 79.9848 20.0152 80.6697 19.7108 81.3546C19.4064 81.9635 18.9498 82.5723 18.4931 83.105C18.0365 83.6377 17.5038 84.0944 16.895 84.3988C16.5145 84.6271 16.0578 84.8554 15.6012 85.0076C15.0685 85.1598 14.6119 85.312 14.0791 85.3881C13.4703 85.4642 12.8615 85.5403 12.2527 85.6164C11.5677 85.6925 10.8067 85.6925 9.96956 85.6925H0V85.3881Z" fill="#1E398E"/>
<path fill-rule="evenodd" clip-rule="evenodd" d="M25.1902 85.3881V68.8737V68.4931H25.5708H29.3759H29.7565V68.8737V85.3881V85.7686H29.3759H25.5708H25.1902V85.3881Z" fill="#1E398E"/>
<path fill-rule="evenodd" clip-rule="evenodd" d="M44.0639 85.5403L34.4749 69.102L34.1705 68.4931H34.8554H39.1933H39.4216L39.5738 68.7215L45.8904 80.0609L51.9026 68.7215L52.0548 68.4931H52.2831H56.0883H56.6971L56.3927 69.102L47.3364 85.5403L47.2603 85.7686H47.032H44.3683H44.14L44.0639 85.5403Z" fill="#1E398E"/>
<path fill-rule="evenodd" clip-rule="evenodd" d="M61.1111 85.3881V68.8737V68.4931H61.4917H65.2968H65.6774V68.8737V85.3881V85.7686H65.2968H61.4917H61.1111V85.3881Z" fill="#1E398E"/>
<path fill-rule="evenodd" clip-rule="evenodd" d="M76.0274 71.8417C76.0274 72.1461 76.1035 72.5266 76.1035 72.831C76.1035 73.1355 76.1035 73.6682 76.1035 74.277V85.3881H73.7443V68.8737H76.0274L84.0183 79.6042L91.4764 68.8737H93.9878V85.3881H91.4764V74.277C91.4764 74.1248 91.4764 73.7443 91.5525 73.1355C91.6286 72.5266 91.6286 72.07 91.6286 71.8417C91.4003 72.2983 91.2481 72.6027 91.0959 72.9071C90.9437 73.2116 90.7915 73.4399 90.6393 73.5921L84.3227 82.8006H83.6377L77.0928 73.8965L77.0167 73.8204C76.5601 73.1355 76.2557 72.5266 76.0274 71.8417Z" fill="#1E398E"/>
<path fill-rule="evenodd" clip-rule="evenodd" d="M105.479 79.2237H114.384L109.893 70.7762L105.479 79.2237ZM99.4672 85.3881L108.447 68.8737H111.415L120.548 85.3881H117.504L115.373 81.3546H104.262L102.131 85.3881H99.4672Z" fill="#1E398E"/>
<path fill-rule="evenodd" clip-rule="evenodd" d="M129.757 77.8539H137.671L145.586 85.7687H139.269L133.409 79.5282L128.006 85.7687H122.451L129.757 77.8539Z" fill="#1E398E"/>
<path fill-rule="evenodd" clip-rule="evenodd" d="M35.312 95.4338H40.0305V95.8904H37.8996V99.8478H37.4429V95.8904H35.312V95.4338ZM43.9878 95.4338V99.5434L47.4886 95.4338H48.4018V99.8478H47.9452V95.7382H47.793L44.2923 99.8478H43.5312V95.4338H43.9878ZM52.1309 95.4338H56.9254V99.8478H56.4688V95.8904H52.5875V99.8478H52.1309V95.4338ZM65.2968 96.9559C65.3729 96.6514 65.2207 96.347 65.0685 96.1187C64.7641 95.9665 64.4597 95.8904 64.1553 95.8904H62.2527C61.9483 95.8904 61.6439 95.9665 61.3394 96.1187C61.1111 96.347 61.035 96.6514 61.035 96.9559V98.4018C60.9589 98.7062 61.1111 99.0107 61.2633 99.239C61.5677 99.3912 61.8722 99.4673 62.1766 99.4673H64.0792C64.3836 99.4673 64.688 99.4673 64.9924 99.239C65.1446 99.0107 65.2207 98.7062 65.2207 98.4018L65.2968 96.9559ZM65.7534 98.4018C65.8295 98.8585 65.6773 99.3151 65.3729 99.6195C64.9924 99.8478 64.5358 99.9239 64.1553 99.9239H62.2527C61.7961 100 61.3394 99.8478 60.9589 99.6195C60.6545 99.3151 60.5784 98.8584 60.5784 98.4779V97.1081C60.5023 96.6514 60.6545 96.1948 60.9589 95.8904C61.3394 95.586 61.7961 95.5099 62.2527 95.5099H64.1553C64.6119 95.4338 64.9924 95.586 65.3729 95.8143C65.6773 96.1948 65.8295 96.6514 65.7534 97.1081V98.4018ZM69.4064 95.5099H73.2116V95.9665H69.863V99.9239H69.4064V95.5099ZM77.3212 98.0974V99.9239H76.8646V95.5099H79.8326C80.2892 95.5099 80.6697 95.586 81.0502 95.8143C81.3547 96.1187 81.4308 96.4992 81.4308 96.8798C81.5069 97.2603 81.3547 97.6408 81.0502 97.8691C80.6697 98.0974 80.2892 98.1735 79.8326 98.0974H77.3212ZM77.3212 95.9665V97.6408H79.9848C80.2131 97.6408 80.4414 97.6408 80.6697 97.4886C80.8219 97.3364 80.898 97.032 80.898 96.8037C80.898 96.5753 80.8219 96.347 80.6697 96.1187C80.4414 95.9665 80.2131 95.8904 79.9087 95.8904L77.3212 95.9665ZM84.7032 99.9239H84.1705L86.4536 95.5099H87.2146L89.4977 99.9239H88.965L88.4323 98.7823H85.312L84.7032 99.9239ZM85.5404 98.4018H88.1279L86.8341 95.8904L85.5404 98.4018ZM95.7382 99.0868V96.347H94.3684C94.0639 96.347 93.7595 96.4231 93.4551 96.5753C93.2268 96.8037 93.1507 97.1081 93.1507 97.4125V97.9452C93.0746 98.2496 93.2268 98.554 93.379 98.7823C93.6834 98.9346 93.9878 99.0107 94.2923 99.0107L95.7382 99.0868ZM96.1948 96.347V99.0868H97.5647C97.8691 99.0868 98.1735 99.0107 98.4779 98.8584C98.7062 98.6301 98.7824 98.3257 98.7063 98.0213V97.4125C98.7063 97.1081 98.6302 96.8037 98.4018 96.5753C98.1735 96.4231 97.793 96.2709 97.4886 96.347H96.1948ZM95.7382 95.5099H96.1948V95.8904H97.5647C98.0213 95.8143 98.4779 95.9665 98.8585 96.2709C99.0868 96.5753 99.239 97.032 99.239 97.4125V97.8691C99.3151 98.3257 99.1629 98.7062 98.8585 99.0107C98.4779 99.239 98.0213 99.3912 97.5647 99.3151H96.1948V99.7717H95.7382V99.3151H94.3684C93.9117 99.3912 93.4551 99.239 93.0746 99.0107C92.7702 98.7062 92.6941 98.2496 92.6941 97.8691V97.4125C92.618 96.9559 92.7702 96.5753 93.0746 96.1948C93.4551 95.8904 93.9117 95.8143 94.3684 95.8143H95.7382V95.5099ZM103.349 95.5099V99.6195L106.849 95.5099H107.686V99.9239H107.306V95.8904H107.154L103.653 100H102.892V95.586H103.349V95.5099ZM115.373 98.0974H113.166L111.72 99.9239H111.111L112.633 98.0974C112.253 98.0974 111.948 98.0213 111.644 97.793C111.416 97.5647 111.263 97.1842 111.339 96.8798C111.263 96.4992 111.416 96.1187 111.72 95.8143C112.1 95.586 112.481 95.4338 112.938 95.5099H115.906V99.9239H115.373V98.0974ZM115.373 97.7169V96.0426H112.709C112.481 96.0426 112.177 96.1187 112.024 96.2709C111.872 96.4992 111.796 96.7276 111.796 96.9559C111.796 97.1842 111.872 97.4125 112.024 97.5647C112.253 97.7169 112.557 97.7169 112.785 97.7169H115.373Z" fill="#1E398E"/>
<path fill-rule="evenodd" clip-rule="evenodd" d="M94.14 46.9558C89.1933 51.9026 82.4962 54.6423 75.5708 54.6423V44.3683C79.8326 44.3683 83.9422 42.694 86.9102 39.6499L94.14 46.9558Z" fill="#6169AE"/>
<path fill-rule="evenodd" clip-rule="evenodd" d="M101.826 28.3105C101.826 35.2359 99.0867 41.933 94.14 46.8797L86.9102 39.6499C89.9543 36.6057 91.6286 32.5723 91.6286 28.3105H101.826Z" fill="#4C58A2"/>
<path fill-rule="evenodd" clip-rule="evenodd" d="M94.14 9.74128C99.0867 14.688 101.826 21.3851 101.826 28.3105H91.6286C91.6286 24.0487 89.9543 19.9392 86.9102 16.9711L94.14 9.74128Z" fill="#364697"/>
<path fill-rule="evenodd" clip-rule="evenodd" d="M95.586 8.29528L75.5708 28.3105V0C83.0289 0 90.2588 2.96804 95.586 8.29528Z" fill="#1E398E"/>
<path fill-rule="evenodd" clip-rule="evenodd" d="M57.0015 46.9558C61.9483 51.9026 68.5693 54.6423 75.5708 54.6423V44.3683C71.309 44.3683 67.1994 42.694 64.2314 39.6499L57.0015 46.9558Z" fill="#797DBA"/>
<path fill-rule="evenodd" clip-rule="evenodd" d="M49.3151 28.3105C49.3151 35.2359 52.0548 41.933 57.0016 46.8797L64.2314 39.6499C61.1873 36.6818 59.513 32.5723 59.513 28.3105H49.3151Z" fill="#F39954"/>
<path fill-rule="evenodd" clip-rule="evenodd" d="M57.0016 9.74128C52.0548 14.688 49.3151 21.309 49.3151 28.3105H59.5891C59.5891 24.0487 61.2634 19.9392 64.3075 16.9711L57.0016 9.74128Z" fill="#F7B27B"/>
<path fill-rule="evenodd" clip-rule="evenodd" d="M75.5708 2.05476C68.5693 2.05476 61.8721 4.79448 57.0015 9.74121L64.2314 16.971C67.1994 13.9269 71.309 12.2526 75.5708 12.2526V2.05476Z" fill="#FAC79E"/>
</svg>
