<svg width="20" height="20" viewBox="0 0 20 20" fill="none" xmlns="http://www.w3.org/2000/svg">
<path d="M20 14.9999C20 15.4384 19.8767 15.8448 19.6791 16.2024L13.3643 9.13707L19.6106 3.67207C19.8536 4.05767 20 4.51063 20 5.00011V14.9999ZM10 10.4199L18.6916 2.815C18.335 2.61974 17.9333 2.5 17.5001 2.5H2.49998C2.06619 2.5 1.66443 2.61974 1.3092 2.815L10 10.4199ZM12.4232 9.95985L10.4113 11.7213C10.2936 11.8238 10.1471 11.875 10 11.875C9.85287 11.875 9.70633 11.8238 9.58865 11.7213L7.57633 9.95976L1.18163 17.1155C1.56493 17.3559 2.01413 17.5 2.49994 17.5H17.5001C17.9858 17.5 18.4352 17.3559 18.8184 17.1155L12.4232 9.95985ZM0.389439 3.67203C0.146493 4.05763 0 4.51059 0 5.00011V15C0 15.4384 0.122751 15.8449 0.321056 16.2025L6.63513 9.13588L0.389439 3.67203Z" fill="#F39954"/>
</svg>
