<svg width="16" height="16" viewBox="0 0 16 16" fill="none" xmlns="http://www.w3.org/2000/svg">
<path fill-rule="evenodd" clip-rule="evenodd" d="M12.32 16C5.5264 16 0 10.4736 0 3.68C0 1.6504 1.6512 0 3.68 0C3.888 0 4.0936 0.0176 4.2928 0.052C4.4872 0.0832 4.6832 0.1328 4.8728 0.1984C5.1336 0.2888 5.3288 0.5072 5.3904 0.776L6.4864 5.5472C6.5464 5.8096 6.4704 6.0848 6.284 6.28C6.1744 6.3936 6.172 6.396 5.18 6.9152C5.9832 8.6544 7.3792 10.0456 9.084 10.8216C9.6032 9.8288 9.6064 9.8256 9.72 9.7168C9.916 9.5296 10.192 9.4568 10.4536 9.5144L15.2248 10.6096C15.4928 10.6712 15.7112 10.8664 15.8016 11.1264C15.8672 11.3152 15.916 11.5104 15.9488 11.7112C15.9824 11.9088 16 12.1136 16 12.32C16 14.3496 14.3496 16 12.32 16Z" fill="#7F7F7F"/>
</svg>
