<svg width="20" height="20" viewBox="0 0 20 20" fill="none" xmlns="http://www.w3.org/2000/svg">
<path d="M19.4233 12.1231C19.567 11.4714 19.6432 10.7977 19.6432 10.1047C19.6432 4.91111 15.3739 0.69988 10.1059 0.69988C9.55042 0.69988 9.00547 0.747381 8.47555 0.837372C7.62328 0.30745 6.61464 0 5.53359 0C2.47782 0 0.00195312 2.4421 0.00195312 5.45537C0.00195312 6.46147 0.280025 7.4038 0.761827 8.21433C0.634976 8.82484 0.568736 9.45724 0.568736 10.1047C0.568736 15.3001 4.8381 19.3545 10.1054 19.3545C10.7022 19.3545 11.2858 19.3001 11.8514 19.197C12.6306 19.6094 13.5205 20 14.4666 20C17.5218 20 19.9976 17.5585 19.9976 14.5452C19.9976 13.676 19.7907 12.853 19.4233 12.1231Z" fill="#00AFF0"/>
<path d="M14.4556 13.9434C14.0876 14.4665 13.5489 14.8776 12.8396 15.1732C12.1304 15.4713 11.2905 15.6188 10.3188 15.6188C9.15339 15.6188 8.19226 15.4163 7.43424 15.0107C6.89807 14.7196 6.46129 14.3296 6.12508 13.8434C5.79011 13.3572 5.62207 12.8836 5.62207 12.423C5.62207 12.1568 5.7227 11.9281 5.92389 11.7387C6.12508 11.5468 6.38194 11.4525 6.69255 11.4525C6.94502 11.4525 7.15932 11.5256 7.33306 11.675C7.50803 11.8231 7.65739 12.0424 7.77985 12.3342C7.93045 12.6811 8.09231 12.9704 8.2679 13.2022C8.44164 13.434 8.68786 13.6265 9.00402 13.7771C9.3215 13.9265 9.7383 14.0027 10.2532 14.0027C10.9619 14.0027 11.538 13.8514 11.9817 13.5471C12.4241 13.244 12.6465 12.8635 12.6465 12.4091C12.6465 12.0492 12.5266 11.7548 12.2878 11.5317C12.0485 11.3068 11.7398 11.1349 11.3611 11.0168C10.983 10.8975 10.4768 10.7712 9.84195 10.6381C8.99393 10.4563 8.28341 10.2413 7.71231 9.99764C7.14051 9.75203 6.68562 9.41898 6.35064 8.99717C6.01443 8.57351 5.84694 8.0486 5.84694 7.42182C5.84694 6.82319 6.02377 6.29265 6.37872 5.82835C6.73305 5.36343 7.24485 5.00663 7.91721 4.75663C8.58832 4.5067 9.37826 4.38232 10.285 4.38232C11.0098 4.38232 11.6372 4.46545 12.1665 4.62978C12.6958 4.79603 13.1339 5.01596 13.4825 5.29033C13.8319 5.56469 14.0874 5.8521 14.248 6.15392C14.4093 6.45389 14.4899 6.75008 14.4899 7.03502C14.4899 7.29682 14.3899 7.53433 14.1887 7.74369C13.9875 7.95366 13.7362 8.05924 13.4357 8.05924C13.1613 8.05924 12.9532 7.99547 12.8107 7.86992C12.6682 7.74369 12.5139 7.53748 12.3483 7.25063C12.1327 6.84069 11.8759 6.52075 11.5747 6.29141C11.2735 6.06146 10.7911 5.94648 10.1249 5.94648C9.50814 5.94648 9.00945 6.07025 8.63075 6.32079C8.25204 6.56948 8.06211 6.87069 8.06211 7.22125C8.06211 7.43747 8.12773 7.62617 8.25582 7.78425C8.38391 7.94357 8.56142 8.07798 8.78821 8.1911C9.01254 8.30484 9.24125 8.39359 9.47182 8.45915C9.70239 8.52354 10.0843 8.61661 10.6166 8.74038C11.2815 8.8835 11.8845 9.0422 12.4245 9.2147C12.9638 9.38781 13.4237 9.59841 13.8024 9.84394C14.1805 10.0914 14.4767 10.4051 14.6885 10.7838C14.9004 11.1613 15.0072 11.6243 15.0072 12.173C15.0074 12.8292 14.8225 13.4197 14.4556 13.9434Z" fill="white"/>
</svg>
