<svg width="768" height="700" viewBox="0 0 768 700" fill="none" xmlns="http://www.w3.org/2000/svg">
<path fill-rule="evenodd" clip-rule="evenodd" d="M390.831 0H0V700H768V619.826C430.236 453.317 374.391 157.574 390.831 0ZM612.185 659.274H585.403L551.347 624.887H578.129L600.282 648.694L651.863 591.823H676L612.185 659.274ZM59.6775 683.081H39.8387V640.758H67.6129C70.5888 640.758 73.8952 641.089 77.2017 642.081C79.8468 643.073 82.1614 644.395 84.1452 646.048C85.7985 647.702 87.121 650.016 88.113 652.331C89.1049 655.307 89.4356 658.613 89.4356 661.589C89.4356 664.895 89.1049 668.202 87.7823 671.508C86.7904 674.153 85.1372 676.468 82.8226 678.121C80.1775 679.774 77.2017 681.097 73.8952 681.758C69.2662 682.75 64.6371 683.081 59.6775 683.081ZM20 624.887V698.29V699.613H63.3146H63.3166C66.9529 699.613 70.2587 699.613 73.2339 699.282L81.1694 698.29C83.0557 698.021 84.7224 697.532 86.5275 697.002L86.5429 696.998C86.9477 696.879 87.3595 696.758 87.7823 696.637C89.7662 695.976 91.7501 694.984 93.4033 693.992C96.0485 692.669 98.363 690.686 100.347 688.371C102.331 686.057 104.315 683.411 105.637 680.766C106.96 677.79 108.282 674.815 108.944 671.839C109.605 668.532 109.936 665.226 109.936 661.919C110.266 656.629 109.274 651.339 107.29 646.379C105.637 641.75 102.661 637.782 99.0243 634.476C95.0565 631.169 90.4275 628.524 85.4678 627.202C79.8468 625.548 73.5646 624.887 67.6129 624.887H20ZM129.443 698.29V626.54V624.887H131.097H147.629H149.282V626.54V698.29V699.944H147.629H131.097H129.443V698.29ZM169.782 627.532L211.444 698.952L211.774 699.944H212.766H224.339H225.331L225.661 698.952L265.008 627.532L266.331 624.887H263.686H247.153H246.161L245.5 625.879L219.379 675.145L191.935 625.879L191.274 624.887H190.282H171.435H168.46L169.782 627.532ZM285.508 698.29V626.54V624.887H287.162H303.694H305.347V626.54V698.29V699.944H303.694H287.162H285.508V698.29ZM350.48 641.585C350.397 640.841 350.315 640.097 350.315 639.435C351.306 642.411 352.629 645.056 354.613 648.032L354.944 648.363L383.379 687.048H386.355L413.798 647.04C414.46 646.379 415.121 645.387 415.782 644.064L418.097 639.435C418.097 640.427 418.097 642.411 417.766 645.056C417.436 647.701 417.436 649.355 417.436 650.016V698.29H428.347V626.54H417.436L385.032 673.161L350.315 626.54H340.395V698.29H350.645V650.016V643.734C350.645 643.072 350.563 642.328 350.48 641.585ZM478.275 671.508H516.96L497.452 634.806L478.275 671.508ZM452.154 698.29L491.17 626.54H504.065L543.742 698.29H530.517L521.259 680.766H472.984L463.726 698.29H452.154ZM618.138 665.556H583.751L552.009 699.944H576.146L599.622 672.831L625.081 699.944H652.525L618.138 665.556Z" fill="white"/>
</svg>
