<svg width="1565" height="700" viewBox="0 0 1565 700" fill="none" xmlns="http://www.w3.org/2000/svg">
<path fill-rule="evenodd" clip-rule="evenodd" d="M957.831 0C938.237 187.804 1021.32 571.875 1562 699.5C1562.71 699.667 1563.41 699.834 1564.12 700H0V0H957.831ZM1038.85 653.323H1008.14L969.104 613.903H999.806L1025.2 641.194L1084.33 576H1112L1038.85 653.323ZM405.484 680.613H382.742V632.097H414.581C417.992 632.097 421.782 632.476 425.573 633.613C428.605 634.75 431.258 636.266 433.532 638.161C435.427 640.057 436.944 642.71 438.081 645.363C439.218 648.774 439.597 652.565 439.597 655.976C439.597 659.766 439.218 663.557 437.702 667.347C436.565 670.379 434.669 673.032 432.016 674.927C428.984 676.823 425.573 678.339 421.782 679.097C416.476 680.234 411.169 680.613 405.484 680.613ZM360 613.903V698.048V699.565H409.653C413.823 699.565 417.613 699.565 421.024 699.186L430.121 698.048C432.284 697.74 434.194 697.179 436.264 696.571C436.733 696.434 437.211 696.294 437.702 696.153C439.976 695.395 442.25 694.258 444.145 693.121C447.177 691.605 449.831 689.331 452.105 686.677C454.379 684.024 456.653 680.992 458.169 677.96C459.686 674.548 461.202 671.137 461.96 667.726C462.718 663.936 463.097 660.145 463.097 656.355C463.476 650.29 462.339 644.226 460.065 638.54C458.169 633.234 454.758 628.686 450.589 624.895C446.04 621.105 440.734 618.073 435.048 616.556C428.605 614.661 421.403 613.903 414.581 613.903H360ZM485.459 698.048V615.798V613.903H487.355H506.306H508.201V615.798V698.048V699.944H506.306H487.355H485.459V698.048ZM531.702 616.936L579.46 698.807L579.839 699.944H580.976H594.242H595.379L595.758 698.807L640.863 616.936L642.379 613.903H639.347H620.395H619.258L618.5 615.04L588.557 671.516L557.097 615.04L556.339 613.903H555.202H533.597H530.186L531.702 616.936ZM664.363 698.048V615.798V613.903H666.258H685.21H687.105V615.798V698.048V699.944H685.21H666.258H664.363V698.048ZM738.843 633.044C738.748 632.191 738.653 631.339 738.653 630.581C739.79 633.992 741.306 637.024 743.581 640.435L743.96 640.814L776.556 685.161H779.968L811.427 639.298C812.185 638.54 812.944 637.403 813.702 635.887L816.355 630.581C816.355 631.718 816.355 633.992 815.976 637.024C815.597 640.056 815.597 641.952 815.597 642.71V698.048H828.105V615.798H815.597L778.452 669.242L738.653 615.798H727.282V698.048H739.032V642.71V635.508C739.032 634.75 738.938 633.897 738.843 633.044ZM885.339 667.347H929.686L907.323 625.274L885.339 667.347ZM855.396 698.048L900.121 615.798H914.904L960.388 698.048H945.226L934.613 677.96H879.275L868.662 698.048H855.396ZM1045.67 660.524H1006.25L969.863 699.944H997.533L1024.44 668.863L1053.63 699.944H1085.09L1045.67 660.524Z" fill="white"/>
</svg>
